<svg width="25" height="25" viewBox="0 0 25 25" fill="none" xmlns="http://www.w3.org/2000/svg">
  <g clip-path="url(#clip0_6_21)">
    <path d="M12.5 0C8.96131 0 5.76609 1.47048 3.49197 3.83369L5.95345 10.6332L8.69141 5.85938H8.69167L13.2677 0.0232315C13.0137 0.00784773 12.7578 0 12.5 0Z" fill="white"/>
    <path d="M2.27889 5.30254C0.843286 7.33752 -6.91048e-06 9.82026 -6.91048e-06 12.5C-6.91048e-06 13.4176 0.0989125 14.3121 0.286591 15.1735L7.53833 17.1301L4.88281 12.5L4.8838 12.4983L2.27889 5.30254Z" fill="white"/>
    <path d="M0.843437 17.023C2.34748 20.8964 5.72647 23.8341 9.86623 24.7219L14.2268 19.1406H8.69138L8.6913 19.1404L0.843437 17.023Z" fill="white"/>
    <path d="M16.3086 19.1406H16.3082L16.3086 19.1409L11.7484 24.9777C11.9971 24.9924 12.2476 25 12.5 25C16.0451 25 19.2456 23.5241 21.5204 21.1533L19.0489 14.3627L16.3086 19.1406Z" fill="white"/>
    <path d="M20.1172 12.5L20.117 12.5004L22.7312 19.6831C24.1607 17.6508 25 15.1734 25 12.5C25 11.5763 24.8998 10.6761 24.7097 9.8095L17.46 7.86694L20.1172 12.5Z" fill="white"/>
    <path d="M10.7764 5.85938H16.3086L16.3089 5.86002L24.1504 7.96112C22.6452 4.1006 19.2767 1.17228 15.15 0.281486L10.7764 5.85938Z" fill="white"/>
    <circle cx="2.17161" cy="2.17161" r="2.17161" transform="matrix(-1 0 0 1 16.3432 8.39844)" fill="white"/>
  </g>
  <defs>
    <clipPath id="clip0_6_21">
      <rect width="25" height="25" fill="white"/>
    </clipPath>
  </defs>
</svg>
